<svg xmlns="http://www.w3.org/2000/svg" version="1.1" xmlns:xlink="http://www.w3.org/1999/xlink" viewBox="0 0 200 200"><rect width="200" height="200" fill="url('#gradient')"></rect><defs><linearGradient id="gradient" gradientTransform="rotate(360 0.5 0.5)"><stop offset="0%" stop-color="#ffffff"></stop><stop offset="100%" stop-color="#ffffff"></stop></linearGradient></defs><g><g fill="#1b3855" transform="matrix(2.990266060999351,0,0,2.990266060999351,8.97684721183576,116.04398789922577)" stroke="#0e5278" stroke-width="0.6"><path d="M6.46-2.97L6.46-2.97Q6.46-3.39 6.02-3.64Q5.58-3.90 4.35-4.17Q3.12-4.44 2.31-4.89Q1.51-5.33 1.09-5.97Q0.67-6.60 0.67-7.42L0.67-7.42Q0.67-8.88 1.88-9.82Q3.08-10.76 5.02-10.76L5.02-10.76Q7.11-10.76 8.38-9.81Q9.65-8.87 9.65-7.32L9.65-7.32L6.35-7.32Q6.35-8.59 5.01-8.59L5.01-8.59Q4.49-8.59 4.14-8.31Q3.79-8.02 3.79-7.59L3.79-7.59Q3.79-7.15 4.22-6.88Q4.65-6.60 5.59-6.43Q6.53-6.25 7.25-6.01L7.25-6.01Q9.63-5.19 9.63-3.07L9.63-3.07Q9.63-1.62 8.34-0.71Q7.06 0.20 5.02 0.20L5.02 0.20Q3.66 0.20 2.60-0.29Q1.53-0.78 0.94-1.62Q0.34-2.46 0.34-3.39L0.34-3.39L3.42-3.39Q3.44-2.66 3.91-2.32Q4.38-1.98 5.11-1.98L5.11-1.98Q5.78-1.98 6.12-2.26Q6.46-2.53 6.46-2.97ZM14.64-10.57L14.64 0L11.34 0L11.34-10.57L14.64-10.57ZM11.14-13.29L11.14-13.29Q11.14-13.99 11.65-14.44Q12.16-14.89 12.97-14.89Q13.78-14.89 14.29-14.44Q14.79-13.99 14.79-13.29Q14.79-12.59 14.29-12.14Q13.78-11.69 12.97-11.69Q12.16-11.69 11.65-12.14Q11.14-12.59 11.14-13.29ZM16.28-5.24L16.28-5.36Q16.28-6.96 16.81-8.19Q17.33-9.42 18.32-10.09Q19.31-10.76 20.62-10.76L20.62-10.76Q22.27-10.76 23.19-9.65L23.19-9.65L23.31-10.57L26.30-10.57L26.30-0.40Q26.30 1.00 25.65 2.03Q25 3.06 23.77 3.61Q22.54 4.16 20.92 4.16L20.92 4.16Q19.76 4.16 18.67 3.72Q17.58 3.28 17.00 2.58L17.00 2.58L18.38 0.64Q19.30 1.73 20.80 1.73L20.80 1.73Q22.99 1.73 22.99-0.52L22.99-0.52L22.99-0.85Q22.04 0.20 20.60 0.20L20.60 0.20Q18.66 0.20 17.47-1.28Q16.28-2.76 16.28-5.24L16.28-5.24ZM19.58-5.16L19.58-5.16Q19.58-3.86 20.07-3.10Q20.56-2.34 21.44-2.34L21.44-2.34Q22.50-2.34 22.99-3.06L22.99-3.06L22.99-7.50Q22.51-8.22 21.46-8.22L21.46-8.22Q20.58-8.22 20.08-7.44Q19.58-6.65 19.58-5.16ZM28.11-10.57L31.19-10.57L31.30-9.33Q32.39-10.76 34.32-10.76L34.32-10.76Q35.97-10.76 36.78-9.78Q37.60-8.79 37.63-6.81L37.63-6.81L37.63 0L34.33 0L34.33-6.67Q34.33-7.47 34.00-7.85Q33.68-8.22 32.83-8.22L32.83-8.22Q31.87-8.22 31.40-7.46L31.40-7.46L31.40 0L28.11 0L28.11-10.57ZM45.84 0L45.74-1.14Q44.70 0.20 42.92 0.20L42.92 0.20Q41.18 0.20 40.29-0.82Q39.39-1.83 39.39-3.72L39.39-3.72L39.39-10.57L42.69-10.57L42.69-3.70Q42.69-2.34 44.00-2.34L44.00-2.34Q45.14-2.34 45.62-3.15L45.62-3.15L45.62-10.57L48.93-10.57L48.93 0L45.84 0ZM60.54-5.36L60.54-5.21Q60.54-2.74 59.43-1.27Q58.32 0.20 56.44 0.20L56.44 0.20Q54.98 0.20 54.04-0.87L54.04-0.87L54.04 4.06L50.75 4.06L50.75-10.57L53.83-10.57L53.93-9.59Q54.87-10.76 56.42-10.76L56.42-10.76Q58.37-10.76 59.45-9.32Q60.54-7.88 60.54-5.36L60.54-5.36ZM57.25-5.06L57.25-5.41Q57.25-8.22 55.61-8.22L55.61-8.22Q54.43-8.22 54.04-7.38L54.04-7.38L54.04-3.22Q54.47-2.34 55.63-2.34L55.63-2.34Q57.20-2.34 57.25-5.06L57.25-5.06Z"></path></g></g></svg>